<svg class="main-svg" xmlns="http://www.w3.org/2000/svg" xmlns:xlink="http://www.w3.org/1999/xlink" width="700" height="500" style="" viewBox="0 0 700 500"><rect x="0" y="0" width="700" height="500" style="fill: rgb(255, 255, 255); fill-opacity: 1;"/><defs id="defs-472b1b"><g class="clips"><clipPath id="clip472b1bxyplot" class="plotclip"><rect width="540" height="360"/></clipPath><clipPath class="axesclip" id="clip472b1bx"><rect x="80" y="0" width="540" height="500"/></clipPath><clipPath class="axesclip" id="clip472b1by"><rect x="0" y="60" width="700" height="360"/></clipPath><clipPath class="axesclip" id="clip472b1bxy"><rect x="80" y="60" width="540" height="360"/></clipPath></g><g class="gradients"/><g class="patterns"/></defs><g class="bglayer"/><g class="layer-below"><g class="imagelayer"/><g class="shapelayer"/></g><g class="cartesianlayer"><g class="subplot xy"><g class="layer-subplot"><g class="shapelayer"/><g class="imagelayer"/></g><g class="minor-gridlayer"><g class="x"/><g class="y"/></g><g class="gridlayer"><g class="x"/><g class="y"/></g><g class="zerolinelayer"/><path class="xlines-below"/><path class="ylines-below"/><g class="overlines-below"/><g class="xaxislayer-below"/><g class="yaxislayer-below"/><g class="overaxes-below"/><g class="plot" transform="translate(80,60)" clip-path="url(#clip472b1bxyplot)"><g class="scatterlayer mlayer"><g class="trace scatter traceaa8d48" style="stroke-miterlimit: 2; opacity: 1;"><g class="fills"/><g class="errorbars"/><g class="lines"/><g class="points"><path class="point plotly-customdata" transform="translate(34.5,221.56)" d="M6,0A6,6 0 1,1 0,-6A6,6 0 0,1 6,0Z" style="opacity: 1; stroke-width: 0px; fill: rgb(68, 1, 84); fill-opacity: 1;"/><path class="point plotly-customdata" transform="translate(494.26,80.82)" d="M6,0A6,6 0 1,1 0,-6A6,6 0 0,1 6,0Z" style="opacity: 1; stroke-width: 0px; fill: rgb(253, 231, 37); fill-opacity: 1;"/><path class="point plotly-customdata" transform="translate(494.27,80.83)" d="M6,0A6,6 0 1,1 0,-6A6,6 0 0,1 6,0Z" style="opacity: 1; stroke-width: 0px; fill: rgb(253, 231, 37); fill-opacity: 1;"/><path class="point plotly-customdata" transform="translate(249.36,325.62)" d="M6,0A6,6 0 1,1 0,-6A6,6 0 0,1 6,0Z" style="opacity: 1; stroke-width: 0px; fill: rgb(59, 81, 138); fill-opacity: 1;"/><path class="point plotly-customdata" transform="translate(380.02,195.5)" d="M6,0A6,6 0 1,1 0,-6A6,6 0 0,1 6,0Z" style="opacity: 1; stroke-width: 0px; fill: rgb(96, 200, 96); fill-opacity: 1;"/><path class="point plotly-customdata" transform="translate(494.26,80.82)" d="M6,0A6,6 0 1,1 0,-6A6,6 0 0,1 6,0Z" style="opacity: 1; stroke-width: 0px; fill: rgb(253, 231, 37); fill-opacity: 1;"/><path class="point plotly-customdata" transform="translate(182.75,138.64)" d="M6,0A6,6 0 1,1 0,-6A6,6 0 0,1 6,0Z" style="opacity: 1; stroke-width: 0px; fill: rgb(68, 1, 84); fill-opacity: 1;"/><path class="point plotly-customdata" transform="translate(96.05,141.53)" d="M6,0A6,6 0 1,1 0,-6A6,6 0 0,1 6,0Z" style="opacity: 1; stroke-width: 0px; fill: rgb(68, 1, 84); fill-opacity: 1;"/><path class="point plotly-customdata" transform="translate(494.27,80.83)" d="M6,0A6,6 0 1,1 0,-6A6,6 0 0,1 6,0Z" style="opacity: 1; stroke-width: 0px; fill: rgb(253, 231, 37); fill-opacity: 1;"/><path class="point plotly-customdata" transform="translate(234.69,334.23)" d="M6,0A6,6 0 1,1 0,-6A6,6 0 0,1 6,0Z" style="opacity: 1; stroke-width: 0px; fill: rgb(59, 81, 138); fill-opacity: 1;"/><path class="point plotly-customdata" transform="translate(181.43,28.58)" d="M6,0A6,6 0 1,1 0,-6A6,6 0 0,1 6,0Z" style="opacity: 1; stroke-width: 0px; fill: rgb(35, 144, 140); fill-opacity: 1;"/><path class="point plotly-customdata" transform="translate(179.56,144.39)" d="M6,0A6,6 0 1,1 0,-6A6,6 0 0,1 6,0Z" style="opacity: 1; stroke-width: 0px; fill: rgb(68, 1, 84); fill-opacity: 1;"/><path class="point plotly-customdata" transform="translate(167.86,148.05)" d="M6,0A6,6 0 1,1 0,-6A6,6 0 0,1 6,0Z" style="opacity: 1; stroke-width: 0px; fill: rgb(68, 1, 84); fill-opacity: 1;"/><path class="point plotly-customdata" transform="translate(361.45,192.65)" d="M6,0A6,6 0 1,1 0,-6A6,6 0 0,1 6,0Z" style="opacity: 1; stroke-width: 0px; fill: rgb(96, 200, 96); fill-opacity: 1;"/><path class="point plotly-customdata" transform="translate(354.88,197.93)" d="M6,0A6,6 0 1,1 0,-6A6,6 0 0,1 6,0Z" style="opacity: 1; stroke-width: 0px; fill: rgb(96, 200, 96); fill-opacity: 1;"/><path class="point plotly-customdata" transform="translate(505.5,101.18)" d="M6,0A6,6 0 1,1 0,-6A6,6 0 0,1 6,0Z" style="opacity: 1; stroke-width: 0px; fill: rgb(253, 231, 37); fill-opacity: 1;"/><path class="point plotly-customdata" transform="translate(364.29,192.26)" d="M6,0A6,6 0 1,1 0,-6A6,6 0 0,1 6,0Z" style="opacity: 1; stroke-width: 0px; fill: rgb(96, 200, 96); fill-opacity: 1;"/><path class="point plotly-customdata" transform="translate(494.26,80.82)" d="M6,0A6,6 0 1,1 0,-6A6,6 0 0,1 6,0Z" style="opacity: 1; stroke-width: 0px; fill: rgb(253, 231, 37); fill-opacity: 1;"/><path class="point plotly-customdata" transform="translate(129.28,135.28)" d="M6,0A6,6 0 1,1 0,-6A6,6 0 0,1 6,0Z" style="opacity: 1; stroke-width: 0px; fill: rgb(68, 1, 84); fill-opacity: 1;"/><path class="point plotly-customdata" transform="translate(149.71,152.72)" d="M6,0A6,6 0 1,1 0,-6A6,6 0 0,1 6,0Z" style="opacity: 1; stroke-width: 0px; fill: rgb(68, 1, 84); fill-opacity: 1;"/><path class="point plotly-customdata" transform="translate(245.93,334.5)" d="M6,0A6,6 0 1,1 0,-6A6,6 0 0,1 6,0Z" style="opacity: 1; stroke-width: 0px; fill: rgb(59, 81, 138); fill-opacity: 1;"/><path class="point plotly-customdata" transform="translate(181.43,28.59)" d="M6,0A6,6 0 1,1 0,-6A6,6 0 0,1 6,0Z" style="opacity: 1; stroke-width: 0px; fill: rgb(35, 144, 140); fill-opacity: 1;"/><path class="point plotly-customdata" transform="translate(103.3,128.16)" d="M6,0A6,6 0 1,1 0,-6A6,6 0 0,1 6,0Z" style="opacity: 1; stroke-width: 0px; fill: rgb(68, 1, 84); fill-opacity: 1;"/><path class="point plotly-customdata" transform="translate(494.27,80.83)" d="M6,0A6,6 0 1,1 0,-6A6,6 0 0,1 6,0Z" style="opacity: 1; stroke-width: 0px; fill: rgb(253, 231, 37); fill-opacity: 1;"/><path class="point plotly-customdata" transform="translate(190.2,32.41)" d="M6,0A6,6 0 1,1 0,-6A6,6 0 0,1 6,0Z" style="opacity: 1; stroke-width: 0px; fill: rgb(35, 144, 140); fill-opacity: 1;"/><path class="point plotly-customdata" transform="translate(505.5,101.18)" d="M6,0A6,6 0 1,1 0,-6A6,6 0 0,1 6,0Z" style="opacity: 1; stroke-width: 0px; fill: rgb(253, 231, 37); fill-opacity: 1;"/><path class="point plotly-customdata" transform="translate(280.52,295.81)" d="M6,0A6,6 0 1,1 0,-6A6,6 0 0,1 6,0Z" style="opacity: 1; stroke-width: 0px; fill: rgb(59, 81, 138); fill-opacity: 1;"/><path class="point plotly-customdata" transform="translate(237.2,32.87)" d="M6,0A6,6 0 1,1 0,-6A6,6 0 0,1 6,0Z" style="opacity: 1; stroke-width: 0px; fill: rgb(35, 144, 140); fill-opacity: 1;"/><path class="point plotly-customdata" transform="translate(122.21,150.03)" d="M6,0A6,6 0 1,1 0,-6A6,6 0 0,1 6,0Z" style="opacity: 1; stroke-width: 0px; fill: rgb(68, 1, 84); fill-opacity: 1;"/><path class="point plotly-customdata" transform="translate(256.71,329.93)" d="M6,0A6,6 0 1,1 0,-6A6,6 0 0,1 6,0Z" style="opacity: 1; stroke-width: 0px; fill: rgb(59, 81, 138); fill-opacity: 1;"/><path class="point plotly-customdata" transform="translate(166.62,125.55)" d="M6,0A6,6 0 1,1 0,-6A6,6 0 0,1 6,0Z" style="opacity: 1; stroke-width: 0px; fill: rgb(68, 1, 84); fill-opacity: 1;"/><path class="point plotly-customdata" transform="translate(117.55,123.92)" d="M6,0A6,6 0 1,1 0,-6A6,6 0 0,1 6,0Z" style="opacity: 1; stroke-width: 0px; fill: rgb(68, 1, 84); fill-opacity: 1;"/><path class="point plotly-customdata" transform="translate(233.61,325.06)" d="M6,0A6,6 0 1,1 0,-6A6,6 0 0,1 6,0Z" style="opacity: 1; stroke-width: 0px; fill: rgb(59, 81, 138); fill-opacity: 1;"/><path class="point plotly-customdata" transform="translate(95.04,134.77)" d="M6,0A6,6 0 1,1 0,-6A6,6 0 0,1 6,0Z" style="opacity: 1; stroke-width: 0px; fill: rgb(68, 1, 84); fill-opacity: 1;"/><path class="point plotly-customdata" transform="translate(354.72,195.38)" d="M6,0A6,6 0 1,1 0,-6A6,6 0 0,1 6,0Z" style="opacity: 1; stroke-width: 0px; fill: rgb(96, 200, 96); fill-opacity: 1;"/><path class="point plotly-customdata" transform="translate(365.83,200.94)" d="M6,0A6,6 0 1,1 0,-6A6,6 0 0,1 6,0Z" style="opacity: 1; stroke-width: 0px; fill: rgb(96, 200, 96); fill-opacity: 1;"/><path class="point plotly-customdata" transform="translate(236.25,324.78)" d="M6,0A6,6 0 1,1 0,-6A6,6 0 0,1 6,0Z" style="opacity: 1; stroke-width: 0px; fill: rgb(59, 81, 138); fill-opacity: 1;"/><path class="point plotly-customdata" transform="translate(225.33,330.18)" d="M6,0A6,6 0 1,1 0,-6A6,6 0 0,1 6,0Z" style="opacity: 1; stroke-width: 0px; fill: rgb(59, 81, 138); fill-opacity: 1;"/><path class="point plotly-customdata" transform="translate(228.36,332.55)" d="M6,0A6,6 0 1,1 0,-6A6,6 0 0,1 6,0Z" style="opacity: 1; stroke-width: 0px; fill: rgb(59, 81, 138); fill-opacity: 1;"/><path class="point plotly-customdata" transform="translate(494.26,80.82)" d="M6,0A6,6 0 1,1 0,-6A6,6 0 0,1 6,0Z" style="opacity: 1; stroke-width: 0px; fill: rgb(253, 231, 37); fill-opacity: 1;"/><path class="point plotly-customdata" transform="translate(67.24,229.7)" d="M6,0A6,6 0 1,1 0,-6A6,6 0 0,1 6,0Z" style="opacity: 1; stroke-width: 0px; fill: rgb(68, 1, 84); fill-opacity: 1;"/><path class="point plotly-customdata" transform="translate(67.32,229.69)" d="M6,0A6,6 0 1,1 0,-6A6,6 0 0,1 6,0Z" style="opacity: 1; stroke-width: 0px; fill: rgb(68, 1, 84); fill-opacity: 1;"/><path class="point plotly-customdata" transform="translate(150,138.66)" d="M6,0A6,6 0 1,1 0,-6A6,6 0 0,1 6,0Z" style="opacity: 1; stroke-width: 0px; fill: rgb(68, 1, 84); fill-opacity: 1;"/><path class="point plotly-customdata" transform="translate(280.52,295.81)" d="M6,0A6,6 0 1,1 0,-6A6,6 0 0,1 6,0Z" style="opacity: 1; stroke-width: 0px; fill: rgb(59, 81, 138); fill-opacity: 1;"/><path class="point plotly-customdata" transform="translate(113.4,150)" d="M6,0A6,6 0 1,1 0,-6A6,6 0 0,1 6,0Z" style="opacity: 1; stroke-width: 0px; fill: rgb(68, 1, 84); fill-opacity: 1;"/><path class="point plotly-customdata" transform="translate(494.27,80.83)" d="M6,0A6,6 0 1,1 0,-6A6,6 0 0,1 6,0Z" style="opacity: 1; stroke-width: 0px; fill: rgb(253, 231, 37); fill-opacity: 1;"/><path class="point plotly-customdata" transform="translate(354.29,196.86)" d="M6,0A6,6 0 1,1 0,-6A6,6 0 0,1 6,0Z" style="opacity: 1; stroke-width: 0px; fill: rgb(96, 200, 96); fill-opacity: 1;"/><path class="point plotly-customdata" transform="translate(161.16,150.07)" d="M6,0A6,6 0 1,1 0,-6A6,6 0 0,1 6,0Z" style="opacity: 1; stroke-width: 0px; fill: rgb(68, 1, 84); fill-opacity: 1;"/><path class="point plotly-customdata" transform="translate(112.67,149.82)" d="M6,0A6,6 0 1,1 0,-6A6,6 0 0,1 6,0Z" style="opacity: 1; stroke-width: 0px; fill: rgb(68, 1, 84); fill-opacity: 1;"/><path class="point plotly-customdata" transform="translate(234.55,334.21)" d="M6,0A6,6 0 1,1 0,-6A6,6 0 0,1 6,0Z" style="opacity: 1; stroke-width: 0px; fill: rgb(59, 81, 138); fill-opacity: 1;"/><path class="point plotly-customdata" transform="translate(183.13,133.61)" d="M6,0A6,6 0 1,1 0,-6A6,6 0 0,1 6,0Z" style="opacity: 1; stroke-width: 0px; fill: rgb(68, 1, 84); fill-opacity: 1;"/><path class="point plotly-customdata" transform="translate(380.02,195.5)" d="M6,0A6,6 0 1,1 0,-6A6,6 0 0,1 6,0Z" style="opacity: 1; stroke-width: 0px; fill: rgb(96, 200, 96); fill-opacity: 1;"/><path class="point plotly-customdata" transform="translate(173.83,128.73)" d="M6,0A6,6 0 1,1 0,-6A6,6 0 0,1 6,0Z" style="opacity: 1; stroke-width: 0px; fill: rgb(68, 1, 84); fill-opacity: 1;"/><path class="point plotly-customdata" transform="translate(242.93,324.81)" d="M6,0A6,6 0 1,1 0,-6A6,6 0 0,1 6,0Z" style="opacity: 1; stroke-width: 0px; fill: rgb(59, 81, 138); fill-opacity: 1;"/><path class="point plotly-customdata" transform="translate(280.52,295.81)" d="M6,0A6,6 0 1,1 0,-6A6,6 0 0,1 6,0Z" style="opacity: 1; stroke-width: 0px; fill: rgb(59, 81, 138); fill-opacity: 1;"/><path class="point plotly-customdata" transform="translate(505.5,101.18)" d="M6,0A6,6 0 1,1 0,-6A6,6 0 0,1 6,0Z" style="opacity: 1; stroke-width: 0px; fill: rgb(253, 231, 37); fill-opacity: 1;"/><path class="point plotly-customdata" transform="translate(110.31,126.63)" d="M6,0A6,6 0 1,1 0,-6A6,6 0 0,1 6,0Z" style="opacity: 1; stroke-width: 0px; fill: rgb(68, 1, 84); fill-opacity: 1;"/><path class="point plotly-customdata" transform="translate(95.88,141.62)" d="M6,0A6,6 0 1,1 0,-6A6,6 0 0,1 6,0Z" style="opacity: 1; stroke-width: 0px; fill: rgb(68, 1, 84); fill-opacity: 1;"/><path class="point plotly-customdata" transform="translate(365.38,200.91)" d="M6,0A6,6 0 1,1 0,-6A6,6 0 0,1 6,0Z" style="opacity: 1; stroke-width: 0px; fill: rgb(96, 200, 96); fill-opacity: 1;"/><path class="point plotly-customdata" transform="translate(34.51,221.56)" d="M6,0A6,6 0 1,1 0,-6A6,6 0 0,1 6,0Z" style="opacity: 1; stroke-width: 0px; fill: rgb(68, 1, 84); fill-opacity: 1;"/><path class="point plotly-customdata" transform="translate(140.1,122.64)" d="M6,0A6,6 0 1,1 0,-6A6,6 0 0,1 6,0Z" style="opacity: 1; stroke-width: 0px; fill: rgb(68, 1, 84); fill-opacity: 1;"/><path class="point plotly-customdata" transform="translate(190.2,32.4)" d="M6,0A6,6 0 1,1 0,-6A6,6 0 0,1 6,0Z" style="opacity: 1; stroke-width: 0px; fill: rgb(35, 144, 140); fill-opacity: 1;"/><path class="point plotly-customdata" transform="translate(256.48,329.16)" d="M6,0A6,6 0 1,1 0,-6A6,6 0 0,1 6,0Z" style="opacity: 1; stroke-width: 0px; fill: rgb(59, 81, 138); fill-opacity: 1;"/><path class="point plotly-customdata" transform="translate(250.92,333.62)" d="M6,0A6,6 0 1,1 0,-6A6,6 0 0,1 6,0Z" style="opacity: 1; stroke-width: 0px; fill: rgb(59, 81, 138); fill-opacity: 1;"/><path class="point plotly-customdata" transform="translate(96.51,133.48)" d="M6,0A6,6 0 1,1 0,-6A6,6 0 0,1 6,0Z" style="opacity: 1; stroke-width: 0px; fill: rgb(68, 1, 84); fill-opacity: 1;"/><path class="point plotly-customdata" transform="translate(161.57,25.5)" d="M6,0A6,6 0 1,1 0,-6A6,6 0 0,1 6,0Z" style="opacity: 1; stroke-width: 0px; fill: rgb(35, 144, 140); fill-opacity: 1;"/><path class="point plotly-customdata" transform="translate(190.2,32.41)" d="M6,0A6,6 0 1,1 0,-6A6,6 0 0,1 6,0Z" style="opacity: 1; stroke-width: 0px; fill: rgb(35, 144, 140); fill-opacity: 1;"/><path class="point plotly-customdata" transform="translate(34.51,221.56)" d="M6,0A6,6 0 1,1 0,-6A6,6 0 0,1 6,0Z" style="opacity: 1; stroke-width: 0px; fill: rgb(68, 1, 84); fill-opacity: 1;"/><path class="point plotly-customdata" transform="translate(372.39,200.54)" d="M6,0A6,6 0 1,1 0,-6A6,6 0 0,1 6,0Z" style="opacity: 1; stroke-width: 0px; fill: rgb(96, 200, 96); fill-opacity: 1;"/><path class="point plotly-customdata" transform="translate(135.5,133.13)" d="M6,0A6,6 0 1,1 0,-6A6,6 0 0,1 6,0Z" style="opacity: 1; stroke-width: 0px; fill: rgb(68, 1, 84); fill-opacity: 1;"/><path class="point plotly-customdata" transform="translate(145.76,134.49)" d="M6,0A6,6 0 1,1 0,-6A6,6 0 0,1 6,0Z" style="opacity: 1; stroke-width: 0px; fill: rgb(68, 1, 84); fill-opacity: 1;"/><path class="point plotly-customdata" transform="translate(183.1,133.57)" d="M6,0A6,6 0 1,1 0,-6A6,6 0 0,1 6,0Z" style="opacity: 1; stroke-width: 0px; fill: rgb(68, 1, 84); fill-opacity: 1;"/><path class="point plotly-customdata" transform="translate(250.14,333.85)" d="M6,0A6,6 0 1,1 0,-6A6,6 0 0,1 6,0Z" style="opacity: 1; stroke-width: 0px; fill: rgb(59, 81, 138); fill-opacity: 1;"/><path class="point plotly-customdata" transform="translate(235.98,334.4)" d="M6,0A6,6 0 1,1 0,-6A6,6 0 0,1 6,0Z" style="opacity: 1; stroke-width: 0px; fill: rgb(59, 81, 138); fill-opacity: 1;"/><path class="point plotly-customdata" transform="translate(370.78,192.27)" d="M6,0A6,6 0 1,1 0,-6A6,6 0 0,1 6,0Z" style="opacity: 1; stroke-width: 0px; fill: rgb(96, 200, 96); fill-opacity: 1;"/><path class="point plotly-customdata" transform="translate(380.02,195.5)" d="M6,0A6,6 0 1,1 0,-6A6,6 0 0,1 6,0Z" style="opacity: 1; stroke-width: 0px; fill: rgb(96, 200, 96); fill-opacity: 1;"/><path class="point plotly-customdata" transform="translate(370.1,192.23)" d="M6,0A6,6 0 1,1 0,-6A6,6 0 0,1 6,0Z" style="opacity: 1; stroke-width: 0px; fill: rgb(96, 200, 96); fill-opacity: 1;"/><path class="point plotly-customdata" transform="translate(129.21,152.28)" d="M6,0A6,6 0 1,1 0,-6A6,6 0 0,1 6,0Z" style="opacity: 1; stroke-width: 0px; fill: rgb(68, 1, 84); fill-opacity: 1;"/><path class="point plotly-customdata" transform="translate(155.52,124.07)" d="M6,0A6,6 0 1,1 0,-6A6,6 0 0,1 6,0Z" style="opacity: 1; stroke-width: 0px; fill: rgb(68, 1, 84); fill-opacity: 1;"/><path class="point plotly-customdata" transform="translate(132.63,122.66)" d="M6,0A6,6 0 1,1 0,-6A6,6 0 0,1 6,0Z" style="opacity: 1; stroke-width: 0px; fill: rgb(68, 1, 84); fill-opacity: 1;"/><path class="point plotly-customdata" transform="translate(354.87,197.92)" d="M6,0A6,6 0 1,1 0,-6A6,6 0 0,1 6,0Z" style="opacity: 1; stroke-width: 0px; fill: rgb(96, 200, 96); fill-opacity: 1;"/><path class="point plotly-customdata" transform="translate(280.52,295.81)" d="M6,0A6,6 0 1,1 0,-6A6,6 0 0,1 6,0Z" style="opacity: 1; stroke-width: 0px; fill: rgb(59, 81, 138); fill-opacity: 1;"/><path class="point plotly-customdata" transform="translate(34.51,221.56)" d="M6,0A6,6 0 1,1 0,-6A6,6 0 0,1 6,0Z" style="opacity: 1; stroke-width: 0px; fill: rgb(68, 1, 84); fill-opacity: 1;"/><path class="point plotly-customdata" transform="translate(494.26,80.82)" d="M6,0A6,6 0 1,1 0,-6A6,6 0 0,1 6,0Z" style="opacity: 1; stroke-width: 0px; fill: rgb(253, 231, 37); fill-opacity: 1;"/><path class="point plotly-customdata" transform="translate(34.51,221.56)" d="M6,0A6,6 0 1,1 0,-6A6,6 0 0,1 6,0Z" style="opacity: 1; stroke-width: 0px; fill: rgb(68, 1, 84); fill-opacity: 1;"/><path class="point plotly-customdata" transform="translate(178.54,40.44)" d="M6,0A6,6 0 1,1 0,-6A6,6 0 0,1 6,0Z" style="opacity: 1; stroke-width: 0px; fill: rgb(35, 144, 140); fill-opacity: 1;"/><path class="point plotly-customdata" transform="translate(256.71,329.93)" d="M6,0A6,6 0 1,1 0,-6A6,6 0 0,1 6,0Z" style="opacity: 1; stroke-width: 0px; fill: rgb(59, 81, 138); fill-opacity: 1;"/><path class="point plotly-customdata" transform="translate(150.39,137.48)" d="M6,0A6,6 0 1,1 0,-6A6,6 0 0,1 6,0Z" style="opacity: 1; stroke-width: 0px; fill: rgb(68, 1, 84); fill-opacity: 1;"/><path class="point plotly-customdata" transform="translate(494.27,80.83)" d="M6,0A6,6 0 1,1 0,-6A6,6 0 0,1 6,0Z" style="opacity: 1; stroke-width: 0px; fill: rgb(253, 231, 37); fill-opacity: 1;"/><path class="point plotly-customdata" transform="translate(233.55,325.07)" d="M6,0A6,6 0 1,1 0,-6A6,6 0 0,1 6,0Z" style="opacity: 1; stroke-width: 0px; fill: rgb(59, 81, 138); fill-opacity: 1;"/><path class="point plotly-customdata" transform="translate(150.29,152.78)" d="M6,0A6,6 0 1,1 0,-6A6,6 0 0,1 6,0Z" style="opacity: 1; stroke-width: 0px; fill: rgb(68, 1, 84); fill-opacity: 1;"/><path class="point plotly-customdata" transform="translate(100.55,142.26)" d="M6,0A6,6 0 1,1 0,-6A6,6 0 0,1 6,0Z" style="opacity: 1; stroke-width: 0px; fill: rgb(68, 1, 84); fill-opacity: 1;"/><path class="point plotly-customdata" transform="translate(505.5,101.18)" d="M6,0A6,6 0 1,1 0,-6A6,6 0 0,1 6,0Z" style="opacity: 1; stroke-width: 0px; fill: rgb(253, 231, 37); fill-opacity: 1;"/><path class="point plotly-customdata" transform="translate(494.27,80.83)" d="M6,0A6,6 0 1,1 0,-6A6,6 0 0,1 6,0Z" style="opacity: 1; stroke-width: 0px; fill: rgb(253, 231, 37); fill-opacity: 1;"/><path class="point plotly-customdata" transform="translate(101.59,146.85)" d="M6,0A6,6 0 1,1 0,-6A6,6 0 0,1 6,0Z" style="opacity: 1; stroke-width: 0px; fill: rgb(68, 1, 84); fill-opacity: 1;"/><path class="point plotly-customdata" transform="translate(237.2,32.87)" d="M6,0A6,6 0 1,1 0,-6A6,6 0 0,1 6,0Z" style="opacity: 1; stroke-width: 0px; fill: rgb(35, 144, 140); fill-opacity: 1;"/><path class="point plotly-customdata" transform="translate(178.56,40.46)" d="M6,0A6,6 0 1,1 0,-6A6,6 0 0,1 6,0Z" style="opacity: 1; stroke-width: 0px; fill: rgb(35, 144, 140); fill-opacity: 1;"/><path class="point plotly-customdata" transform="translate(226.07,327.61)" d="M6,0A6,6 0 1,1 0,-6A6,6 0 0,1 6,0Z" style="opacity: 1; stroke-width: 0px; fill: rgb(59, 81, 138); fill-opacity: 1;"/><path class="point plotly-customdata" transform="translate(67.24,229.69)" d="M6,0A6,6 0 1,1 0,-6A6,6 0 0,1 6,0Z" style="opacity: 1; stroke-width: 0px; fill: rgb(68, 1, 84); fill-opacity: 1;"/><path class="point plotly-customdata" transform="translate(494.26,80.82)" d="M6,0A6,6 0 1,1 0,-6A6,6 0 0,1 6,0Z" style="opacity: 1; stroke-width: 0px; fill: rgb(253, 231, 37); fill-opacity: 1;"/></g><g class="text"/></g></g></g><g class="overplot"/><path class="xlines-above crisp" d="M79,420.5H620" style="fill: none; stroke-width: 1px; stroke: rgb(36, 36, 36); stroke-opacity: 1;"/><path class="ylines-above crisp" d="M79.5,60V420" style="fill: none; stroke-width: 1px; stroke: rgb(36, 36, 36); stroke-opacity: 1;"/><g class="overlines-above"/><g class="xaxislayer-above"><path class="xtick ticks crisp" d="M0,421v5" transform="translate(93.9,0)" style="stroke: rgb(68, 68, 68); stroke-opacity: 1; stroke-width: 1px;"/><path class="xtick ticks crisp" d="M0,421v5" transform="translate(191.48000000000002,0)" style="stroke: rgb(68, 68, 68); stroke-opacity: 1; stroke-width: 1px;"/><path class="xtick ticks crisp" d="M0,421v5" transform="translate(289.06,0)" style="stroke: rgb(68, 68, 68); stroke-opacity: 1; stroke-width: 1px;"/><path class="xtick ticks crisp" d="M0,421v5" transform="translate(386.64,0)" style="stroke: rgb(68, 68, 68); stroke-opacity: 1; stroke-width: 1px;"/><path class="xtick ticks crisp" d="M0,421v5" transform="translate(484.22,0)" style="stroke: rgb(68, 68, 68); stroke-opacity: 1; stroke-width: 1px;"/><path class="xtick ticks crisp" d="M0,421v5" transform="translate(581.8,0)" style="stroke: rgb(68, 68, 68); stroke-opacity: 1; stroke-width: 1px;"/><g class="xtick"><text text-anchor="middle" x="0" y="440.4" transform="translate(93.9,0)" style="font-family: 'Open Sans', verdana, arial, sans-serif; font-size: 12px; fill: rgb(36, 36, 36); fill-opacity: 1; white-space: pre; opacity: 1;">−4</text></g><g class="xtick"><text text-anchor="middle" x="0" y="440.4" style="font-family: 'Open Sans', verdana, arial, sans-serif; font-size: 12px; fill: rgb(36, 36, 36); fill-opacity: 1; white-space: pre; opacity: 1;" transform="translate(191.48000000000002,0)">−2</text></g><g class="xtick"><text text-anchor="middle" x="0" y="440.4" style="font-family: 'Open Sans', verdana, arial, sans-serif; font-size: 12px; fill: rgb(36, 36, 36); fill-opacity: 1; white-space: pre; opacity: 1;" transform="translate(289.06,0)">0</text></g><g class="xtick"><text text-anchor="middle" x="0" y="440.4" style="font-family: 'Open Sans', verdana, arial, sans-serif; font-size: 12px; fill: rgb(36, 36, 36); fill-opacity: 1; white-space: pre; opacity: 1;" transform="translate(386.64,0)">2</text></g><g class="xtick"><text text-anchor="middle" x="0" y="440.4" style="font-family: 'Open Sans', verdana, arial, sans-serif; font-size: 12px; fill: rgb(36, 36, 36); fill-opacity: 1; white-space: pre; opacity: 1;" transform="translate(484.22,0)">4</text></g><g class="xtick"><text text-anchor="middle" x="0" y="440.4" style="font-family: 'Open Sans', verdana, arial, sans-serif; font-size: 12px; fill: rgb(36, 36, 36); fill-opacity: 1; white-space: pre; opacity: 1;" transform="translate(581.8,0)">6</text></g></g><g class="yaxislayer-above"><path class="ytick ticks crisp" d="M79,0h-5" transform="translate(0,363.15)" style="stroke: rgb(68, 68, 68); stroke-opacity: 1; stroke-width: 1px;"/><path class="ytick ticks crisp" d="M79,0h-5" transform="translate(0,281.14)" style="stroke: rgb(68, 68, 68); stroke-opacity: 1; stroke-width: 1px;"/><path class="ytick ticks crisp" d="M79,0h-5" transform="translate(0,199.14)" style="stroke: rgb(68, 68, 68); stroke-opacity: 1; stroke-width: 1px;"/><path class="ytick ticks crisp" d="M79,0h-5" transform="translate(0,117.13)" style="stroke: rgb(68, 68, 68); stroke-opacity: 1; stroke-width: 1px;"/><g class="ytick"><text text-anchor="end" x="71.6" y="4.199999999999999" transform="translate(0,363.15)" style="font-family: 'Open Sans', verdana, arial, sans-serif; font-size: 12px; fill: rgb(36, 36, 36); fill-opacity: 1; white-space: pre; opacity: 1;">−10</text></g><g class="ytick"><text text-anchor="end" x="71.6" y="4.199999999999999" style="font-family: 'Open Sans', verdana, arial, sans-serif; font-size: 12px; fill: rgb(36, 36, 36); fill-opacity: 1; white-space: pre; opacity: 1;" transform="translate(0,281.14)">−5</text></g><g class="ytick"><text text-anchor="end" x="71.6" y="4.199999999999999" style="font-family: 'Open Sans', verdana, arial, sans-serif; font-size: 12px; fill: rgb(36, 36, 36); fill-opacity: 1; white-space: pre; opacity: 1;" transform="translate(0,199.14)">0</text></g><g class="ytick"><text text-anchor="end" x="71.6" y="4.199999999999999" style="font-family: 'Open Sans', verdana, arial, sans-serif; font-size: 12px; fill: rgb(36, 36, 36); fill-opacity: 1; white-space: pre; opacity: 1;" transform="translate(0,117.13)">5</text></g></g><g class="overaxes-above"/></g></g><g class="polarlayer"/><g class="smithlayer"/><g class="ternarylayer"/><g class="geolayer"/><g class="funnelarealayer"/><g class="pielayer"/><g class="iciclelayer"/><g class="treemaplayer"/><g class="sunburstlayer"/><g class="glimages"/><defs id="topdefs-472b1b"><g class="clips"/></defs><g class="layer-above"><g class="imagelayer"/><g class="shapelayer"/></g><g class="infolayer"><g class="g-gtitle"/><g class="g-xtitle"><text class="xtitle" x="350" y="467.70625" text-anchor="middle" style="font-family: 'Open Sans', verdana, arial, sans-serif; font-size: 14px; fill: rgb(36, 36, 36); opacity: 1; font-weight: normal; white-space: pre;">x</text></g><g class="g-ytitle"><text class="ytitle" transform="rotate(-90,21.715625000000003,240)" x="21.715625000000003" y="240" text-anchor="middle" style="font-family: 'Open Sans', verdana, arial, sans-serif; font-size: 14px; fill: rgb(36, 36, 36); opacity: 1; font-weight: normal; white-space: pre;">y</text></g></g></svg>